<mxfile host="app.diagrams.net" agent="Mozilla/5.0 (Windows NT 10.0; Win64; x64) AppleWebKit/537.36 (KHTML, like Gecko) Chrome/131.0.0.0 Safari/537.36" version="25.0.0">
  <diagram name="Seite-1" id="4A2YwwTTmII6rBf1Q2FR">
    <mxGraphModel dx="1383" dy="814" grid="1" gridSize="10" guides="1" tooltips="1" connect="1" arrows="1" fold="1" page="1" pageScale="1" pageWidth="827" pageHeight="1169" math="0" shadow="0">
      <root>
        <mxCell id="0" />
        <mxCell id="1" parent="0" />
        <mxCell id="6ftq6j65stskF8XGJ8QF-1" value="" style="ellipse;html=1;shape=endState;fillColor=strokeColor;strokeWidth=0;" parent="1" vertex="1">
          <mxGeometry x="180" y="85" width="30" height="30" as="geometry" />
        </mxCell>
        <mxCell id="6ftq6j65stskF8XGJ8QF-2" value="Player spawns in front of car" style="text;html=1;align=center;verticalAlign=middle;resizable=0;points=[];autosize=1;strokeColor=none;fillColor=none;" parent="1" vertex="1">
          <mxGeometry x="100" y="50" width="170" height="30" as="geometry" />
        </mxCell>
        <mxCell id="6ftq6j65stskF8XGJ8QF-3" value="Scene 4&lt;br&gt;&lt;div&gt;(Dream:home)&lt;/div&gt;" style="shape=folder;align=center;verticalAlign=middle;fontStyle=0;tabWidth=100;tabHeight=30;tabPosition=left;html=1;boundedLbl=1;labelInHeader=1;rounded=1;absoluteArcSize=1;arcSize=10;whiteSpace=wrap;" parent="1" vertex="1">
          <mxGeometry x="15" y="100" width="796.02" height="700" as="geometry" />
        </mxCell>
        <mxCell id="6ftq6j65stskF8XGJ8QF-4" style="edgeStyle=orthogonalEdgeStyle;rounded=0;orthogonalLoop=1;jettySize=auto;html=1;exitX=0.8;exitY=0.447;exitDx=0;exitDy=0;exitPerimeter=0;entryX=0.281;entryY=0.04;entryDx=0;entryDy=0;entryPerimeter=0;" parent="1" edge="1" target="6ftq6j65stskF8XGJ8QF-3" source="6ftq6j65stskF8XGJ8QF-1">
          <mxGeometry relative="1" as="geometry">
            <mxPoint x="239.99996036459285" y="110.0344827586207" as="sourcePoint" />
            <mxPoint x="333.98" y="111" as="targetPoint" />
            <Array as="points">
              <mxPoint x="204" y="100" />
              <mxPoint x="239" y="100" />
            </Array>
          </mxGeometry>
        </mxCell>
        <mxCell id="UIB05lLIntMKHFcyhaDu-1" value="" style="ellipse;html=1;shape=endState;fillColor=strokeColor;strokeWidth=0;" parent="1" vertex="1">
          <mxGeometry x="60" y="150" width="30" height="30" as="geometry" />
        </mxCell>
        <mxCell id="Lgm5uu-BYtN0YzGv8uxh-11" style="edgeStyle=orthogonalEdgeStyle;rounded=0;orthogonalLoop=1;jettySize=auto;html=1;entryX=0;entryY=0.5;entryDx=0;entryDy=0;" parent="1" source="UIB05lLIntMKHFcyhaDu-2" target="UIB05lLIntMKHFcyhaDu-25" edge="1">
          <mxGeometry relative="1" as="geometry" />
        </mxCell>
        <mxCell id="UIB05lLIntMKHFcyhaDu-2" value="See Smiler at the corner of your house while turing around-animation" style="rounded=1;whiteSpace=wrap;html=1;" parent="1" vertex="1">
          <mxGeometry x="24.999999999999996" y="220" width="120" height="60" as="geometry" />
        </mxCell>
        <mxCell id="UIB05lLIntMKHFcyhaDu-3" style="edgeStyle=orthogonalEdgeStyle;rounded=0;orthogonalLoop=1;jettySize=auto;html=1;exitX=0.5;exitY=1;exitDx=0;exitDy=0;" parent="1" source="UIB05lLIntMKHFcyhaDu-1" edge="1">
          <mxGeometry relative="1" as="geometry">
            <mxPoint x="75.0003398874988" y="200" as="sourcePoint" />
            <mxPoint x="75.0003398874988" y="220" as="targetPoint" />
          </mxGeometry>
        </mxCell>
        <mxCell id="UIB05lLIntMKHFcyhaDu-4" value="Start animation" style="text;html=1;align=center;verticalAlign=middle;whiteSpace=wrap;rounded=0;" parent="1" vertex="1">
          <mxGeometry x="75" y="170" width="150" height="40" as="geometry" />
        </mxCell>
        <mxCell id="UIB05lLIntMKHFcyhaDu-25" value="Walk around outside" style="rounded=1;whiteSpace=wrap;html=1;" parent="1" vertex="1">
          <mxGeometry x="240" y="220" width="120" height="60" as="geometry" />
        </mxCell>
        <mxCell id="Lgm5uu-BYtN0YzGv8uxh-16" value="" style="endArrow=classic;html=1;rounded=0;exitX=1;exitY=0.5;exitDx=0;exitDy=0;entryX=0;entryY=0.5;entryDx=0;entryDy=0;" parent="1" source="UIB05lLIntMKHFcyhaDu-25" edge="1">
          <mxGeometry width="50" height="50" relative="1" as="geometry">
            <mxPoint x="415" y="280" as="sourcePoint" />
            <mxPoint x="475" y="250" as="targetPoint" />
          </mxGeometry>
        </mxCell>
        <mxCell id="w5_11uPRbBjuEzUio9Y5-1" value="Goes through open door" style="rounded=1;whiteSpace=wrap;html=1;" parent="1" vertex="1">
          <mxGeometry x="475" y="220" width="120" height="60" as="geometry" />
        </mxCell>
        <mxCell id="w5_11uPRbBjuEzUio9Y5-2" value="Scene 4&lt;br&gt;&lt;div&gt;(Inside)&lt;/div&gt;" style="shape=folder;align=center;verticalAlign=middle;fontStyle=0;tabWidth=100;tabHeight=30;tabPosition=left;html=1;boundedLbl=1;labelInHeader=1;rounded=1;absoluteArcSize=1;arcSize=10;whiteSpace=wrap;" parent="1" vertex="1">
          <mxGeometry x="15" y="350" width="796.02" height="450" as="geometry" />
        </mxCell>
        <mxCell id="w5_11uPRbBjuEzUio9Y5-3" style="edgeStyle=orthogonalEdgeStyle;rounded=0;orthogonalLoop=1;jettySize=auto;html=1;entryX=0;entryY=0;entryDx=307.5;entryDy=30;entryPerimeter=0;" parent="1" source="w5_11uPRbBjuEzUio9Y5-1" target="w5_11uPRbBjuEzUio9Y5-2" edge="1">
          <mxGeometry relative="1" as="geometry" />
        </mxCell>
        <mxCell id="w5_11uPRbBjuEzUio9Y5-7" style="edgeStyle=orthogonalEdgeStyle;rounded=0;orthogonalLoop=1;jettySize=auto;html=1;" parent="1" source="w5_11uPRbBjuEzUio9Y5-6" target="Lgm5uu-BYtN0YzGv8uxh-14" edge="1">
          <mxGeometry relative="1" as="geometry" />
        </mxCell>
        <mxCell id="w5_11uPRbBjuEzUio9Y5-6" value="" style="ellipse;html=1;shape=endState;fillColor=strokeColor;strokeWidth=0;" parent="1" vertex="1">
          <mxGeometry x="45" y="490" width="30" height="30" as="geometry" />
        </mxCell>
        <mxCell id="w5_11uPRbBjuEzUio9Y5-9" style="edgeStyle=orthogonalEdgeStyle;rounded=0;orthogonalLoop=1;jettySize=auto;html=1;" parent="1" source="Lgm5uu-BYtN0YzGv8uxh-14" target="w5_11uPRbBjuEzUio9Y5-8" edge="1">
          <mxGeometry relative="1" as="geometry" />
        </mxCell>
        <mxCell id="Lgm5uu-BYtN0YzGv8uxh-14" value="Trigger sound of a ghost" style="rounded=1;whiteSpace=wrap;html=1;" parent="1" vertex="1">
          <mxGeometry x="90" y="480" width="120" height="60" as="geometry" />
        </mxCell>
        <mxCell id="w5_11uPRbBjuEzUio9Y5-12" style="edgeStyle=orthogonalEdgeStyle;rounded=0;orthogonalLoop=1;jettySize=auto;html=1;entryX=0.032;entryY=0.583;entryDx=0;entryDy=0;entryPerimeter=0;" parent="1" source="w5_11uPRbBjuEzUio9Y5-8" target="ivUp4uSi5tEJxtO9uZT--4" edge="1">
          <mxGeometry relative="1" as="geometry">
            <mxPoint x="385" y="570" as="targetPoint" />
          </mxGeometry>
        </mxCell>
        <mxCell id="w5_11uPRbBjuEzUio9Y5-8" value="Walk inside your living room" style="rounded=1;whiteSpace=wrap;html=1;" parent="1" vertex="1">
          <mxGeometry x="270" y="480" width="120" height="60" as="geometry" />
        </mxCell>
        <mxCell id="w5_11uPRbBjuEzUio9Y5-10" value="By entering the kitchen, an event is triggered" style="text;html=1;align=center;verticalAlign=middle;whiteSpace=wrap;rounded=0;" parent="1" vertex="1">
          <mxGeometry x="540" y="420" width="115" height="30" as="geometry" />
        </mxCell>
        <mxCell id="w5_11uPRbBjuEzUio9Y5-38" style="edgeStyle=orthogonalEdgeStyle;rounded=0;orthogonalLoop=1;jettySize=auto;html=1;" parent="1" source="w5_11uPRbBjuEzUio9Y5-35" edge="1">
          <mxGeometry relative="1" as="geometry">
            <mxPoint x="1040" y="829.9999999999998" as="targetPoint" />
          </mxGeometry>
        </mxCell>
        <mxCell id="ivUp4uSi5tEJxtO9uZT--8" style="edgeStyle=orthogonalEdgeStyle;rounded=0;orthogonalLoop=1;jettySize=auto;html=1;" edge="1" parent="1" source="ivUp4uSi5tEJxtO9uZT--4" target="ivUp4uSi5tEJxtO9uZT--7">
          <mxGeometry relative="1" as="geometry" />
        </mxCell>
        <mxCell id="ivUp4uSi5tEJxtO9uZT--4" value="Go to the kitchen" style="rounded=1;whiteSpace=wrap;html=1;" vertex="1" parent="1">
          <mxGeometry x="422.5" y="475" width="120" height="60" as="geometry" />
        </mxCell>
        <mxCell id="ivUp4uSi5tEJxtO9uZT--7" value="Ghost woman walks in front of the window" style="rounded=1;whiteSpace=wrap;html=1;" vertex="1" parent="1">
          <mxGeometry x="652.5" y="475" width="120" height="60" as="geometry" />
        </mxCell>
        <mxCell id="ivUp4uSi5tEJxtO9uZT--14" style="edgeStyle=orthogonalEdgeStyle;rounded=0;orthogonalLoop=1;jettySize=auto;html=1;" edge="1" parent="1" source="ivUp4uSi5tEJxtO9uZT--9" target="ivUp4uSi5tEJxtO9uZT--13">
          <mxGeometry relative="1" as="geometry" />
        </mxCell>
        <mxCell id="ivUp4uSi5tEJxtO9uZT--9" value="Go to bedroom" style="rounded=1;whiteSpace=wrap;html=1;" vertex="1" parent="1">
          <mxGeometry x="422.5" y="600" width="120" height="60" as="geometry" />
        </mxCell>
        <mxCell id="ivUp4uSi5tEJxtO9uZT--10" style="edgeStyle=orthogonalEdgeStyle;rounded=0;orthogonalLoop=1;jettySize=auto;html=1;entryX=1;entryY=0.6;entryDx=0;entryDy=0;entryPerimeter=0;" edge="1" parent="1" source="ivUp4uSi5tEJxtO9uZT--7" target="ivUp4uSi5tEJxtO9uZT--9">
          <mxGeometry relative="1" as="geometry">
            <Array as="points">
              <mxPoint x="791.02" y="505" />
              <mxPoint x="791.02" y="636" />
            </Array>
          </mxGeometry>
        </mxCell>
        <mxCell id="ivUp4uSi5tEJxtO9uZT--11" value="This event will open the door to the bedroom" style="text;html=1;align=center;verticalAlign=middle;whiteSpace=wrap;rounded=0;" vertex="1" parent="1">
          <mxGeometry x="675" y="580" width="115" height="30" as="geometry" />
        </mxCell>
        <mxCell id="ivUp4uSi5tEJxtO9uZT--12" style="edgeStyle=orthogonalEdgeStyle;rounded=0;orthogonalLoop=1;jettySize=auto;html=1;entryX=0.006;entryY=0.6;entryDx=0;entryDy=0;entryPerimeter=0;" edge="1" parent="1" source="w5_11uPRbBjuEzUio9Y5-8" target="ivUp4uSi5tEJxtO9uZT--9">
          <mxGeometry relative="1" as="geometry" />
        </mxCell>
        <mxCell id="ivUp4uSi5tEJxtO9uZT--13" value="Click on bed" style="rounded=1;whiteSpace=wrap;html=1;" vertex="1" parent="1">
          <mxGeometry x="420" y="680" width="120" height="60" as="geometry" />
        </mxCell>
        <mxCell id="ivUp4uSi5tEJxtO9uZT--15" value="" style="ellipse;html=1;shape=endState;fillColor=strokeColor;strokeWidth=1;perimeterSpacing=4;" vertex="1" parent="1">
          <mxGeometry x="705" y="705" width="30" height="30" as="geometry" />
        </mxCell>
        <mxCell id="ivUp4uSi5tEJxtO9uZT--16" style="edgeStyle=orthogonalEdgeStyle;rounded=0;orthogonalLoop=1;jettySize=auto;html=1;entryX=0.525;entryY=0.318;entryDx=0;entryDy=0;entryPerimeter=0;" edge="1" parent="1" source="ivUp4uSi5tEJxtO9uZT--13" target="ivUp4uSi5tEJxtO9uZT--15">
          <mxGeometry relative="1" as="geometry" />
        </mxCell>
        <mxCell id="ivUp4uSi5tEJxtO9uZT--17" value="Return to office" style="text;html=1;align=center;verticalAlign=middle;whiteSpace=wrap;rounded=0;" vertex="1" parent="1">
          <mxGeometry x="665" y="665" width="115" height="30" as="geometry" />
        </mxCell>
      </root>
    </mxGraphModel>
  </diagram>
</mxfile>
